<?xml version="1.0" encoding="UTF-8" standalone="no"?>
<!-- Created with Inkscape (http://www.inkscape.org/) -->

<svg
   width="95mm"
   height="130.00002mm"
   viewBox="0 0 95 130.00002"
   version="1.1"
   id="svg5"
   xmlns="http://www.w3.org/2000/svg"
   xmlns:svg="http://www.w3.org/2000/svg">
  <defs
     id="defs2" />
  <g
     id="layer1">
    <path
       style="fill:#000000;fill-opacity:1;stroke:#000000;stroke-width:1.94827;stroke-dasharray:none;stroke-dashoffset:0"
       id="path788"
       d="M 37.802172,18.000128 A 17.19112,17.025946 0 0 1 20.714368,35.025766 17.19112,17.025946 0 0 1 3.4211732,18.204771 17.19112,17.025946 0 0 1 20.301118,0.97694937 17.19112,17.025946 0 0 1 37.797205,17.59087 l -17.186153,0.409258 z" />
    <rect
       style="fill:#000000;fill-opacity:1;stroke:#000000;stroke-width:6.00001;stroke-dasharray:none;stroke-dashoffset:0"
       id="rect896"
       width="37.835453"
       height="79.023415"
       x="1.702513"
       y="33.47403"
       ry="18.917727" />
    <path
       style="fill:#000000;fill-opacity:1;stroke:#000000;stroke-width:1.94827;stroke-dasharray:none;stroke-dashoffset:0"
       id="path788-1"
       d="M 87.792278,18.328344 A 17.19112,17.025946 0 0 1 70.704474,35.353983 17.19112,17.025946 0 0 1 53.41128,18.532988 17.19112,17.025946 0 0 1 70.291224,1.3051659 17.19112,17.025946 0 0 1 87.787311,17.919087 l -17.186153,0.409257 z" />
    <rect
       style="fill:#000000;fill-opacity:1;stroke:#000000;stroke-width:6.00001;stroke-dasharray:none;stroke-dashoffset:0"
       id="rect896-30"
       width="37.835453"
       height="79.023415"
       x="51.692593"
       y="33.802292"
       ry="18.917727" />
    <rect
       style="fill:#000000;fill-opacity:1;stroke:#4d5b6e;stroke-width:6.00001;stroke-dasharray:none;stroke-dashoffset:0;stroke-opacity:1"
       id="rect896-3"
       width="37.835453"
       height="79.023415"
       x="26.362909"
       y="51.141769"
       ry="18.917727" />
    <path
       style="fill:#000000;fill-opacity:1;stroke:#4d5b6e;stroke-width:1.94827;stroke-dasharray:none;stroke-dashoffset:0;stroke-opacity:1"
       id="path788-2"
       d="M 62.46257,42.879379 A 17.19112,17.025946 0 0 1 45.374766,59.905017 17.19112,17.025946 0 0 1 28.081572,43.084023 17.19112,17.025946 0 0 1 44.961516,25.856201 17.19112,17.025946 0 0 1 62.457603,42.470122 L 45.27145,42.879379 Z" />
    <rect
       style="fill:#000000;fill-opacity:1;stroke:none;stroke-width:4.59999;stroke-dasharray:none;stroke-dashoffset:0;stroke-opacity:1"
       id="rect1653"
       width="26.798296"
       height="11.25485"
       x="34.764271"
       y="37.25193"
       ry="5.6274252" />
  </g>
</svg>
