<?xml version="1.0" encoding="UTF-8" standalone="no"?>
<!-- Created with Inkscape (http://www.inkscape.org/) -->

<svg
   width="89.999992mm"
   height="95mm"
   viewBox="0 0 89.999992 95"
   version="1.1"
   id="svg2434"
   xmlns="http://www.w3.org/2000/svg"
   xmlns:svg="http://www.w3.org/2000/svg">
  <defs
     id="defs2431" />
  <g
     id="layer1">
    <path
       id="path2970"
       style="fill:#000000;fill-opacity:1;stroke:none;stroke-width:4.59999"
       d="M 44.195678,1.3916353e-8 A 44.194412,43.686432 0 0 0 34.361653,1.095023 44.194412,43.686432 0 0 0 0.4934364,50.196419 44.194412,43.686432 0 0 0 47.496252,87.250988 44.194412,43.686432 0 0 0 88.388844,43.686739 L 86.425658,30.811556 A 44.194412,43.686432 0 0 0 44.195678,1.3916353e-8 Z M 44.317118,45.380692 a 10.159634,11.189586 0 0 1 9.585461,7.890992 l 0.16123,0.642854 a 10.159634,11.189586 0 0 1 -7.312215,13.483932 10.159634,11.189586 0 0 1 -12.350667,-7.8512 10.159634,11.189586 0 0 1 6.944279,-13.718543 10.159634,11.189586 0 0 1 2.971912,-0.448035 z" />
    <rect
       style="fill:#000000;fill-opacity:1;stroke:none;stroke-width:3.97485"
       id="rect4659"
       width="15.578107"
       height="56.894119"
       x="63.264709"
       y="-4.5813503"
       ry="5.8158307"
       transform="rotate(49.821219)" />
  </g>
</svg>
